<?xml version="1.0" standalone="no"?><svg xmlns="http://www.w3.org/2000/svg" viewBox="0 0 1440 320"><path fill="#4169e1" fill-opacity="1" d="M0,32L24,42.7C48,53,96,75,144,101.3C192,128,240,160,288,186.7C336,213,384,235,432,224C480,213,528,171,576,170.7C624,171,672,213,720,208C768,203,816,149,864,122.7C912,96,960,96,1008,96C1056,96,1104,96,1152,85.3C1200,75,1248,53,1296,48C1344,43,1392,53,1416,58.7L1440,64L1440,320L1416,320C1392,320,1344,320,1296,320C1248,320,1200,320,1152,320C1104,320,1056,320,1008,320C960,320,912,320,864,320C816,320,768,320,720,320C672,320,624,320,576,320C528,320,480,320,432,320C384,320,336,320,288,320C240,320,192,320,144,320C96,320,48,320,24,320L0,320Z"></path></svg>